<?xml version="1.0" standalone="no"?>
<!DOCTYPE svg PUBLIC "-//W3C//DTD SVG 20010904//EN"
 "http://www.w3.org/TR/2001/REC-SVG-20010904/DTD/svg10.dtd">
<svg version="1.0" xmlns="http://www.w3.org/2000/svg"
 width="512.000000pt" height="512.000000pt" viewBox="0 0 512.000000 512.000000"
 preserveAspectRatio="xMidYMid meet">

<defs>
    <linearGradient id="beautifulGradient" x1="0%" y1="0%" x2="100%" y2="100%">
      <stop offset="0%" style="stop-color:#6A5ACD;stop-opacity:1" />
      <stop offset="50%" style="stop-color:#FF6B9E;stop-opacity:1" />
      <stop offset="100%" style="stop-color:#4ECDC4;stop-opacity:1" />
    </linearGradient>
</defs>

<g transform="translate(0.000000,512.000000) scale(0.100000,-0.100000)"
fill="url(#beautifulGradient)" stroke="none">
<path d="M2431 4119 c-79 -14 -227 -66 -291 -101 -133 -75 -269 -195 -360
-318 -62 -83 -156 -276 -199 -407 -37 -111 -73 -253 -65 -253 2 0 58 31 124
69 67 39 152 82 190 97 l68 26 26 67 c118 300 380 511 636 511 209 0 436 -148
566 -369 52 -90 114 -244 143 -356 64 -253 51 -544 -34 -800 -38 -114 -135
-297 -210 -396 -76 -102 -236 -257 -327 -319 -37 -25 -68 -48 -68 -52 0 -14
200 -89 305 -114 l60 -14 130 133 c251 255 406 547 477 899 20 98 23 142 22
328 0 184 -3 230 -23 320 -47 223 -159 493 -261 630 -101 137 -260 271 -403
339 -151 72 -363 106 -506 80z"/>
<path d="M2430 3289 c-599 -39 -1175 -411 -1430 -924 -178 -359 -147 -767 78
-1028 120 -140 317 -260 517 -313 90 -25 117 -27 280 -28 175 -1 255 8 390 40
102 25 205 57 205 63 0 3 -44 30 -98 59 -53 29 -134 79 -179 111 l-82 60 -63
-10 c-271 -39 -520 28 -682 181 -115 110 -156 212 -156 391 0 210 80 391 269
608 194 223 479 384 801 452 138 29 399 32 535 6 127 -25 246 -62 344 -108 46
-22 86 -37 89 -34 8 8 -26 215 -48 296 l-22 76 -86 27 c-127 39 -264 65 -372
71 -52 3 -113 7 -135 9 -22 1 -92 -1 -155 -5z"/>
<path d="M3690 2748 c0 -78 -5 -173 -10 -210 l-10 -68 61 -82 c74 -100 142
-240 163 -335 19 -83 21 -229 5 -305 -38 -185 -198 -336 -433 -410 -62 -20
-92 -23 -236 -23 -180 1 -258 13 -430 67 -425 135 -770 479 -915 912 -39 116
-52 176 -69 315 l-11 93 -65 -48 c-36 -26 -102 -83 -146 -126 l-81 -79 13 -63
c17 -79 65 -232 105 -327 129 -316 420 -647 719 -821 297 -172 630 -258 945
-245 437 20 805 279 904 637 85 305 17 632 -194 925 -71 99 -212 255 -275 305
l-40 32 0 -144z"/>
</g>
</svg>
